<?xml version="1.0" encoding="utf-8"?>
<!-- Generator: Adobe Illustrator 25.2.1, SVG Export Plug-In . SVG Version: 6.00 Build 0)  -->
<svg version="1.1" id="Capa_1" xmlns="http://www.w3.org/2000/svg" xmlns:xlink="http://www.w3.org/1999/xlink" x="0px" y="0px"
	 viewBox="0 0 768 768" style="enable-background:new 0 0 768 768;" xml:space="preserve">
<style type="text/css">
	.st0{display:none;fill:#AAAAAA;}
	.st1{fill:#EDEDED;}
	.st2{fill:#124559;}
</style>
<rect class="st0" width="768" height="768"/>
<circle class="st1" cx="384" cy="384" r="384"/>
<path class="st2" d="M598.3,491.6c-18.8-29.9-103.8-177.1-112.9-402.4c6.9-4.4,12.2-11.4,14.5-19.9c3.3-12.4-0.6-24.9-9.1-33.3
	c-1.5-1.5-4-0.8-4.5,1.2l-1.7,6.2l0,0l-0.3,1l0.3-1c0,0,0,0,0,0l-12.2,45.7l-1.4,5.4h0l-57.2,213.4c-0.4,1.4-1.9,2.3-3.3,1.9
	l-15.6-4.2c-1.4-0.4-2.3-1.9-1.9-3.3l57.6-215.1l0.6-2.4c0,0,0,0,0,0l2.1-7.7l-2,7.4l7-26.3l-5,18.8l10.5-39.2c0,0,0,0,0,0l1.7-6.2
	c0.5-2-1.3-3.8-3.3-3.3c-11.6,3-21.2,12-24.5,24.3c-2.3,8.6-1.1,17.2,2.6,24.5c-120.6,190.6-267.8,275.5-299,292
	c-3.6,1.9-5.5,5.9-4.8,9.8c16.9,96,21.9,181.9-13.6,286.6C191.4,729.1,283.1,768,384,768c28,0,55.4-3,81.7-8.7
	c21.3-109.4,68.9-181.6,131.8-256.8C600.1,499.4,600.5,495,598.3,491.6z M372.9,315c1-3.6,4.6-5.7,8.2-4.7l38.9,10.4
	c3.6,1,5.7,4.6,4.7,8.2c-1,3.6-4.6,5.7-8.2,4.7l-38.9-10.4C374.1,322.2,372,318.6,372.9,315z M359.6,333.6c1-3.6,4.6-5.7,8.2-4.7
	l54.4,14.6c3.6,1,5.7,4.6,4.7,8.2c-1,3.6-4.6,5.7-8.2,4.7l-54.4-14.6C360.7,340.9,358.6,337.2,359.6,333.6z M351.4,353.7
	c1-3.6,4.6-5.7,8.2-4.7l59.6,16c3.6,1,5.7,4.6,4.7,8.2c-1,3.6-4.6,5.7-8.2,4.7l-59.6-16C352.6,360.9,350.5,357.3,351.4,353.7z
	 M446.2,508.3c-13.4,50.1-64.9,79.9-115.1,66.4c-50.1-13.4-79.9-64.9-66.4-115.1c12.6-46.9,46.4-55.5,71.9-86.7
	c3.3-4,8.7-5.7,13.7-4.3l67.3,18c5,1.3,8.9,5.5,9.7,10.6C433.7,437,458.7,461.3,446.2,508.3z"/>
</svg>
