<?xml version="1.0" encoding="utf-8"?>
<!-- Generator: Adobe Illustrator 25.2.1, SVG Export Plug-In . SVG Version: 6.00 Build 0)  -->
<svg version="1.1" id="Capa_1" xmlns="http://www.w3.org/2000/svg" xmlns:xlink="http://www.w3.org/1999/xlink" x="0px" y="0px"
	 viewBox="0 0 3630 768" style="enable-background:new 0 0 3630 768;" xml:space="preserve">
<style type="text/css">
	.st0{fill:#EDEDED;}
	.st1{display:none;fill:#EDEDED;enable-background:new    ;}
	.st2{font-family:'NotoSerif';}
	.st3{font-size:700px;}
</style>
<g>
	<path class="st0" d="M350.4,363.7c-0.9,3.6,1.2,7.2,4.7,8.2l59.6,16c3.6,1,7.2-1.1,8.2-4.7c1-3.6-1.1-7.2-4.7-8.2l-59.6-16
		C355,358,351.4,360.1,350.4,363.7z"/>
	<path class="st0" d="M415.5,343.6c3.6,1,7.2-1.1,8.2-4.7c1-3.6-1.1-7.2-4.7-8.2l-38.9-10.4c-3.6-1-7.2,1.1-8.2,4.7
		c-0.9,3.6,1.2,7.2,4.7,8.2L415.5,343.6z"/>
	<path class="st0" d="M335.6,382.9c-25.5,31.2-59.3,39.8-71.9,86.7c-13.5,50.2,16.3,101.7,66.4,115.1
		c50.2,13.5,101.7-16.3,115.1-66.4c12.5-47-12.5-71.3-18.9-111.1c-0.8-5.1-4.7-9.3-9.7-10.6l-67.3-18
		C344.3,377.2,338.9,378.9,335.6,382.9z"/>
	<path class="st0" d="M384,0C171.9,0,0,171.9,0,384c0,112.1,48,213,124.6,283.2c32.5-101,27.3-184.8,10.9-278.3
		c-0.7-3.9,1.2-7.9,4.8-9.8c31.2-16.5,178.4-101.4,299-292c-3.7-7.3-4.9-15.9-2.6-24.5c3.3-12.3,12.9-21.3,24.5-24.3
		c2-0.5,3.8,1.3,3.3,3.3l-1.7,6.2L452.3,87l5-18.8L451,91.7l1.3-4.6l-2,7.4l0.7-2.8l-0.8,3.1l-0.6,2.4L392,312.3
		c-0.4,1.4,0.5,2.9,1.9,3.3l15.6,4.2c1.4,0.4,2.9-0.5,3.3-1.9L470,104.5l1.4-5.4l12.2-45.7l1.7-6.2c0.5-2,3-2.7,4.5-1.2
		c8.5,8.4,12.4,20.9,9.1,33.3c-2.3,8.5-7.6,15.5-14.5,19.9c9.1,225.3,94.1,372.5,112.9,402.4c2.2,3.4,1.8,7.8-0.8,10.9
		C535.6,585.3,489,655.3,466.8,759C639.1,721.2,768,567.7,768,384C768,171.9,596.1,0,384,0z"/>
	<path class="st0" d="M358.6,343.6c-1,3.6,1.1,7.3,4.7,8.2l54.4,14.6c3.6,1,7.2-1.1,8.2-4.7c1-3.6-1.1-7.2-4.7-8.2l-54.4-14.6
		C363.2,337.9,359.6,340,358.6,343.6z"/>
</g>
<text transform="matrix(1 0 0 1 956.2227 642.1113)" class="st1 st2 st3">Author_</text>
<g>
	<path class="st0" d="M1097.7,475l-26.7,73.5c-2.1,5.5-3.6,10.9-4.8,16.2c-1.1,5.4-1.7,10-1.7,13.8c0,11.9,3.8,20.5,11.5,26
		c7.6,5.5,19.3,8.2,35,8.2h16.1v29.4H956.2v-29.4h13.3c6.8,0,12.6-0.7,17.4-2.2c4.8-1.5,9.1-4.3,13-8.4c3.9-4.1,7.6-9.7,11.1-16.7
		c3.5-7.1,7.5-16.2,11.8-27.3L1178,142.4h54.7L1391,575.5c2.7,7.3,5.5,13.3,8.4,18.1c2.8,4.8,6.2,8.6,10.1,11.5s8.3,4.8,13.3,6
		c5,1.1,10.9,1.7,17.8,1.7h9.2v29.4h-192.4v-29.4h16.1c28,0,42-11.2,42-33.5c0-3.9-0.5-7.9-1.5-12s-2.5-8.8-4.3-14l-28-78.3H1097.7z
		 M1225.6,317.4c-7.3-20.7-14-40.2-20-58.3c-6-18.1-11-35.6-14.9-52.5c-1.6,8.4-3.5,16.6-5.6,24.4c-2.2,7.9-4.5,15.9-7,24.1
		s-5.4,16.8-8.5,25.8c-3.2,9-6.8,19-10.9,29.9l-47.5,128.9H1269L1225.6,317.4z"/>
	<path class="st0" d="M1804.6,565.9c0,10.3,1.5,18.5,4.6,24.8s7.2,11,12.5,14.2c5.2,3.2,11.3,5.3,18.3,6.3c6.9,1,14.3,1.5,22,1.5
		h2.1v29.4H1753l-9.2-56.7h-3.4c-7.1,13.2-14.9,23.9-23.4,32.1s-17.6,14.6-27.2,19.3s-19.6,7.9-30.1,9.6
		c-10.5,1.7-21.4,2.6-32.8,2.6c-18.5,0-34.9-2.6-49.2-7.9s-26.4-13.4-36.2-24.6c-9.8-11.2-17.3-25.4-22.4-42.7s-7.7-37.9-7.7-61.9
		V344.1c0-10.3-1.5-18.5-4.6-24.8s-7.2-11.1-12.5-14.5c-5.2-3.4-11.3-5.7-18.3-6.8c-7-1.1-14.3-1.7-22-1.7h-2.1v-29.4h125.4v241.7
		c0,15.3,1.2,28.8,3.6,40.7s6.4,21.9,12,30.1c5.6,8.2,13.1,14.4,22.6,18.6c9.5,4.2,21.2,6.3,35.4,6.3c15.5,0,28.8-2.7,39.8-8.2
		s20.2-13.2,27.3-23.1s12.5-21.8,15.9-35.7s5.1-29.3,5.1-46.1V346.8c0-10.9-1.5-19.8-4.6-26.5s-7.2-11.8-12.3-15.4
		c-5.1-3.5-11.2-5.9-18.1-7c-7-1.1-14.4-1.7-22.4-1.7h-2.1v-29.4h125.1L1804.6,565.9L1804.6,565.9z"/>
	<path class="st0" d="M2065.7,612c8.4,0,16.2-0.5,23.2-1.4c7.1-0.9,14.2-2.1,21.5-3.4V638c-3,1.4-6.8,2.7-11.6,4.1s-10,2.6-15.6,3.6
		s-11.5,1.8-17.6,2.4c-6.2,0.6-12,0.9-17.4,0.9c-17.8,0-33-1.9-45.8-5.6c-12.8-3.8-23.2-9.9-31.4-18.3c-8.2-8.4-14.3-19.6-18.3-33.5
		s-6-30.9-6-50.9V306.8h-53.3v-28c8.4,0,17.7-1.7,27.9-5.1c10.1-3.4,19.1-9.1,26.8-17.1c8-8.7,14.4-19,19.3-30.9
		c4.9-12,9.2-26.9,12.8-44.9h32.1v86.1h91.6v40h-91.6v235.8c0,23.9,4.8,41.5,14.5,52.6C2036.6,606.5,2049.5,612,2065.7,612z"/>
	<path class="st0" d="M2327.5,612.7v29.4h-188.3v-29.4h5.5c8,0,15.4-0.6,22.4-1.7c6.9-1.1,13-3.5,18.1-7s9.2-8.6,12.3-15.2
		c3.1-6.6,4.6-15.4,4.6-26.3V187.2c0-10.3-1.5-18.5-4.6-24.8s-7.2-11.1-12.5-14.5c-5.2-3.4-11.3-5.6-18.3-6.7c-7-1-14.3-1.5-22-1.5
		h-5.5v-29.4H2268v153.8c0,6.4-0.1,13-0.3,20s-0.6,13.4-1,19.3c-0.5,6.8-0.9,13.6-1.4,20.2h3.4c21-42.4,55.3-63.6,102.9-63.6
		c19.8,0,37.4,2.7,52.8,8c15.4,5.4,28.3,13.6,38.8,24.6c10.5,11.1,18.5,25.2,23.9,42.6c5.5,17.3,8.2,37.9,8.2,61.9v165.4
		c0,10.9,1.4,19.7,4.1,26.3c2.7,6.6,6.5,11.7,11.3,15.2s10.5,5.9,17.1,7s13.8,1.7,21.5,1.7h2.1v29.4h-121.7V400.5
		c0-15.3-1.4-28.8-4.1-40.7c-2.7-11.8-7.1-21.9-13.2-30.1c-6-8.2-14-14.4-23.8-18.6s-21.8-6.3-35.9-6.3c-14.6,0-27.2,2.7-37.8,8
		c-10.6,5.4-19.4,13-26.3,22.9c-7,9.9-12.1,21.9-15.6,35.9s-5.1,29.6-5.1,46.7V566c0,10.3,1.5,18.5,4.6,24.8s7.2,11,12.5,14.2
		c5.2,3.2,11.3,5.3,18.3,6.3c6.9,1,14.3,1.5,22,1.5L2327.5,612.7L2327.5,612.7z"/>
	<path class="st0" d="M2936.3,453.8c0,65.9-14,114.8-41.9,147c-27.9,32.1-68.8,48.2-122.5,48.2c-25.3,0-48-4-68-12
		c-20.1-8-37.1-20-51.1-36.2s-24.7-36.5-32.1-61c-7.4-24.5-11.1-53.1-11.1-86c0-65.4,13.8-114,41.5-145.9S2719.7,260,2774,260
		c25.3,0,48,3.9,68,11.8s37.1,19.8,51.1,35.9s24.7,36.2,32.1,60.5C2932.5,392.4,2936.3,421,2936.3,453.8z M2677.2,453.8
		c0,26,1.7,48.9,5.1,68.7c3.4,19.8,8.9,36.4,16.6,49.7c7.6,13.3,17.5,23.4,29.7,30.2s27.1,10.3,44.6,10.3s32.4-3.4,44.4-10.3
		c12.1-6.8,21.9-16.9,29.4-30.2s12.9-29.9,16.2-49.7s5-42.7,5-68.7s-1.7-48.8-5.1-68.4c-3.4-19.6-8.9-35.9-16.4-49
		s-17.4-23-29.6-29.6c-12.2-6.6-27.1-9.9-44.6-9.9s-32.4,3.3-44.4,9.9c-12.1,6.6-21.9,16.5-29.4,29.6s-13,29.5-16.4,49
		C2678.9,405,2677.2,427.8,2677.2,453.8z"/>
	<path class="st0" d="M3200.1,642.1h-202v-29.4h2.1c8,0,15.4-0.6,22.4-1.7c6.9-1.1,13-3.5,18.1-7s9.2-8.6,12.3-15.2
		c3.1-6.6,4.6-15.4,4.6-26.3V344.1c0-10.3-1.5-18.5-4.6-24.8s-7.2-11.1-12.5-14.5c-5.2-3.4-11.3-5.7-18.3-6.8
		c-7-1.1-14.3-1.7-22-1.7h-2.1v-29.4h107.7l13.3,69.4h3.4c4.6-10.5,9.2-20.3,14-29.6s10.6-17.3,17.6-24.3
		c6.9-6.9,15.6-12.4,25.8-16.4c10.3-4,23.1-6,38.6-6c25.5,0,44.5,4.4,56.9,13.3s18.6,21.4,18.6,37.6c0,7.3-1.2,14-3.6,20.2
		s-6.2,11.5-11.5,15.9c-5.2,4.4-12,7.9-20.2,10.3s-18.2,3.6-30.1,3.6c0-19.4-2.7-33.3-8.2-41.9s-15-12.8-28.7-12.8
		c-8.7,0-16.4,2.5-23.2,7.3c-6.8,4.9-12.8,11.4-17.9,19.5c-5.1,8.1-9.5,17.4-13,27.9s-6.4,21.2-8.5,32.3c-2.2,11.1-3.7,22-4.6,33
		c-0.9,10.9-1.4,20.8-1.4,29.7V566c0,10.3,1.5,18.5,4.6,24.8s7.2,11,12.5,14.2c5.2,3.2,11.3,5.3,18.3,6.3c6.9,1,14.3,1.5,22,1.5
		h19.5L3200.1,642.1L3200.1,642.1z"/>
	<path class="st0" d="M3629.4,741.6h-328.1v-41.4h328.1V741.6z"/>
</g>
</svg>
